<?xml version="1.0" standalone="no"?>
<!DOCTYPE svg PUBLIC "-//W3C//DTD SVG 20010904//EN"
 "http://www.w3.org/TR/2001/REC-SVG-20010904/DTD/svg10.dtd">
<svg version="1.0" xmlns="http://www.w3.org/2000/svg"
 width="889.000000pt" height="889.000000pt" viewBox="0 0 889.000000 889.000000"
 preserveAspectRatio="xMidYMid meet">
<metadata>
Created by potrace 1.11, written by Peter Selinger 2001-2013
</metadata>
<g transform="translate(0.000000,889.000000) scale(0.100000,-0.100000)"
fill="#000000" stroke="none">
<path d="M4188 6665 c-1 -2 -39 -5 -83 -8 -44 -3 -80 -6 -80 -7 0 -1 -25 -3
-55 -6 -30 -2 -68 -6 -85 -10 -16 -3 -61 -10 -100 -14 -66 -8 -113 -16 -160
-25 -11 -3 -56 -12 -100 -21 -44 -8 -87 -18 -95 -21 -8 -3 -28 -7 -45 -9 -16
-2 -39 -8 -50 -13 -18 -8 -54 -19 -92 -27 -7 -1 -42 -12 -77 -23 -36 -12 -73
-21 -84 -21 -10 0 -22 -4 -27 -8 -6 -5 -64 -28 -130 -52 -66 -23 -124 -46
-130 -49 -5 -4 -29 -13 -52 -21 -24 -7 -43 -17 -43 -22 0 -4 -9 -8 -19 -8 -10
0 -78 -29 -150 -65 -73 -36 -136 -65 -140 -65 -5 0 -11 -7 -15 -15 -3 -8 -12
-15 -20 -15 -9 0 -31 -9 -51 -20 -155 -88 -210 -122 -213 -131 -2 -5 -10 -9
-18 -9 -8 0 -14 -3 -14 -8 0 -4 -13 -13 -28 -19 -15 -7 -36 -19 -47 -28 -11
-8 -45 -31 -75 -52 -30 -20 -56 -40 -58 -45 -2 -4 -10 -8 -18 -8 -8 0 -14 -3
-14 -7 0 -5 -17 -19 -38 -33 -20 -14 -39 -27 -42 -30 -3 -3 -30 -25 -60 -50
-30 -25 -60 -49 -67 -55 -6 -5 -30 -26 -54 -45 -24 -19 -58 -50 -77 -67 -18
-18 -35 -33 -37 -33 -10 0 -345 -345 -345 -355 0 -5 -43 -54 -103 -116 -9 -11
-14 -19 -10 -19 5 0 3 -4 -2 -8 -6 -4 -33 -36 -60 -72 -27 -36 -52 -67 -55
-70 -14 -13 -90 -130 -90 -139 0 -5 -6 -14 -12 -18 -15 -9 -111 -153 -102
-153 3 0 -1 -7 -8 -15 -31 -35 -38 -45 -38 -60 0 -8 -4 -15 -9 -15 -5 0 -11
-8 -15 -17 -3 -10 -26 -54 -50 -98 -47 -84 -75 -138 -97 -192 -8 -18 -17 -33
-21 -33 -3 0 -9 -13 -13 -30 -4 -17 -11 -30 -16 -30 -5 0 -8 -3 -7 -7 2 -8
-50 -138 -78 -197 -8 -16 -14 -37 -14 -46 0 -9 -3 -20 -7 -24 -6 -6 -31 -68
-36 -91 -2 -5 -5 -14 -8 -20 -5 -9 -12 -29 -25 -80 -1 -5 -9 -29 -18 -52 -8
-24 -13 -43 -11 -43 2 0 -5 -24 -16 -52 -10 -29 -19 -63 -19 -75 0 -12 -5 -25
-10 -28 -6 -3 -10 -22 -10 -41 0 -19 -4 -42 -9 -52 -9 -18 -31 -106 -35 -144
-2 -13 -6 -32 -9 -43 -3 -11 -8 -42 -12 -69 -3 -27 -8 -52 -10 -55 -2 -4 -6
-35 -10 -71 -3 -35 -8 -67 -10 -70 -1 -3 -6 -41 -10 -85 -3 -44 -8 -92 -11
-106 -6 -41 -14 -352 -9 -369 4 -13 505 -15 4428 -14 2432 0 4428 3 4433 7 25
15 -5 506 -42 687 -2 14 -7 43 -10 65 -3 22 -7 47 -9 55 -3 8 -7 33 -11 55 -3
22 -10 48 -15 57 -5 9 -9 28 -9 42 0 14 -7 51 -16 83 -8 32 -17 69 -20 83 -2
14 -8 36 -13 50 -5 14 -14 43 -19 65 -6 22 -15 51 -19 65 -4 14 -6 28 -5 33 1
4 -3 7 -8 7 -6 0 -10 7 -10 15 0 18 -27 104 -40 127 -6 10 -10 27 -10 38 0 11
-4 20 -10 20 -5 0 -10 7 -10 15 0 19 -86 230 -106 263 -8 12 -12 22 -10 22 8
0 -165 335 -175 338 -5 2 -9 12 -9 23 0 10 -4 19 -9 19 -5 0 -14 14 -21 30 -7
17 -17 30 -22 30 -5 0 -6 5 -3 10 3 6 1 10 -6 10 -7 0 -10 3 -6 6 3 3 1 11 -4
18 -5 6 -24 34 -41 61 -18 28 -35 52 -39 55 -3 3 -12 16 -19 30 -7 13 -37 57
-66 97 -30 39 -54 76 -54 81 0 6 -7 12 -15 16 -8 3 -15 10 -15 15 0 6 -10 21
-22 35 -13 14 -36 42 -53 62 -16 20 -39 47 -50 59 -11 13 -31 38 -45 55 -14
17 -41 48 -60 69 -19 20 -56 61 -82 89 -26 29 -48 52 -50 52 -2 0 -51 46 -109
103 -58 56 -129 122 -158 147 -30 25 -60 51 -67 58 -7 6 -18 12 -24 12 -6 0
-9 4 -5 9 3 5 -3 12 -12 15 -10 3 -29 16 -43 28 -14 13 -46 39 -70 58 -25 19
-46 38 -48 42 -2 4 -10 8 -18 8 -8 0 -14 5 -14 10 0 6 -6 10 -14 10 -8 0 -16
4 -18 8 -1 4 -37 30 -78 57 -41 28 -77 53 -78 58 -2 4 -8 5 -13 1 -5 -3 -9 0
-9 5 0 6 -7 11 -15 11 -8 0 -15 5 -15 10 0 6 -4 10 -9 10 -5 0 -46 23 -90 50
-44 28 -85 50 -91 50 -5 0 -10 4 -10 8 0 5 -16 14 -35 22 -19 8 -35 17 -35 22
0 4 -5 8 -12 8 -16 0 -142 63 -146 73 -2 4 -10 7 -17 7 -7 0 -39 14 -70 30
-31 17 -64 30 -74 30 -9 0 -25 7 -35 15 -10 8 -42 22 -70 31 -28 9 -53 20 -56
23 -7 8 -213 77 -222 73 -5 -1 -8 2 -8 8 0 5 -11 10 -25 10 -14 0 -33 4 -43 9
-18 10 -143 48 -177 54 -11 2 -27 6 -35 9 -22 8 -139 35 -195 45 -16 2 -70 13
-119 24 -49 10 -108 19 -131 19 -23 0 -55 4 -71 10 -16 5 -60 11 -99 14 -38 3
-83 8 -100 11 -32 7 -641 16 -647 10z"/>
</g>
</svg>
